<svg xmlns="http://www.w3.org/2000/svg" xmlns:xlink="http://www.w3.org/1999/xlink" width="639" height="129" viewBox="0 0 639 129">
  <defs>
    <clipPath id="clip-path">
      <rect id="Rectangle_113" data-name="Rectangle 113" width="639" height="129" transform="translate(0 541)" fill="#fff"/>
    </clipPath>
  </defs>
  <g id="Mask_Group_22" data-name="Mask Group 22" transform="translate(0 -541)" clip-path="url(#clip-path)">
    <g id="Group_69" data-name="Group 69">
      <g id="Group_67" data-name="Group 67" transform="matrix(0.995, -0.105, 0.105, 0.995, -1707.271, 603.799)">
        <path id="Path_18" data-name="Path 18" d="M1911.5,166.018c-7.615.413-14.948.815-22.281,1.205-7.86.418-15.721.7-23.574.448-1.039-.033-1.291.5-1.469,1.436-1.04,5.434-2.006,10.888-3.16,16.294-2.005,9.394-4.112,18.762-6.225,28.128a15.077,15.077,0,0,1-1.284,3.478c-.954,1.872-2.681,2.068-3.818.391-4.966-7.325-10.924-13.6-16.265-20.53-3.258-4.226-3.629-4.156-7.57-.626a55.711,55.711,0,0,0-6.819,7.752c-2.922,3.812-5.859,7.609-8.774,11.427-.68.89-1.484,1.405-2.442.957-1.018-.476-.994-1.58-.935-2.691.821-15.332,2.216-30.618,3.865-45.883.208-1.92.1-3.82.141-5.73.017-.71-.226-.851-.757-.969-11.828-2.633-23.278-6.781-34.8-10.62-1.082-.36-1.464.242-1.9,1.069-2.819,5.3-5.124,10.892-7.44,16.485-3.859,9.32-7.275,18.842-10.541,28.435a25.154,25.154,0,0,1-1.227,3.081c-1.1,2.216-2.773,2.42-4.1.45q-3.919-5.795-7.727-11.69a54.61,54.61,0,0,0-9.246-10.609,1.388,1.388,0,0,0-1.99-.11c-5.257,3.394-10.905,5.959-15.78,10.167-.8.691-1.687,1.011-2.531.2-.872-.836-.518-1.906-.206-2.92,3.158-10.261,6.361-20.5,9.469-30.784,1.914-6.33,3.753-12.689,5.373-19.123.324-1.286.2-1.9-1.052-2.367-6.485-2.434-13-4.812-19.164-8.178a17.117,17.117,0,0,1-3.4-2.206,2.2,2.2,0,0,1,.067-3.5c.293-.255.455-.189.728.02,5.107,3.925,11.037,5.735,16.758,8.038,16.682,6.717,33.625,12.575,50.547,18.483,13.108,4.576,26.187,9.353,39.719,12.232a289.6,289.6,0,0,0,46.226,6.133c15.948.778,31.885-.291,47.83-1.177,9.458-.525,18.917-.96,28.374-1.518,8.079-.477,16.141-1.375,24.17-2.64,12.59-1.983,25.093-4.56,37.284-9.031.78-.286.914-.047,1.068.8.346,1.912-.025,2.835-1.88,3.454a219.715,219.715,0,0,1-31.257,7.66c-1.478.263-1.839.8-1.954,2.434-1.031,14.714-1.237,29.474-2.859,44.154a36.422,36.422,0,0,1-.518,3.731c-.6,2.765-2.254,3.454-4.225,1.77q-7.71-6.59-15.381-13.239c-2.354-2.046-4.831-3.886-7.25-5.821-1.009-.807-1.515-.543-2.161.524a71.171,71.171,0,0,0-6.318,14.417c-.748,2.233-1.6,4.427-2.438,6.619-.439,1.142-1.058,2.12-2.324,1.983s-1.367-1.363-1.622-2.424c-3.555-14.786-4.635-30.042-5.467-45.341A8.243,8.243,0,0,1,1911.5,166.018Zm-193.626,15.1c3.957-2.383,7.937-4.717,11.861-7.171,2.1-1.314,3.842-1.066,5.7.558a62.494,62.494,0,0,1,11.392,13.634c1.625,2.543,3.322,5.024,5.114,7.726a396.7,396.7,0,0,1,18.6-46.972c-2.083-.743-4.092-1.444-6.09-2.176-10.942-4.008-21.991-7.651-32.857-11.916-.873-.343-1.181-.247-1.415.979a208.247,208.247,0,0,1-6.207,23.8c-2.23,7.048-4.344,14.139-6.276,21.3l-.186.343Zm133.46,31.874c.286-1.108.552-2.033.763-2.973,3.075-13.662,6.043-27.349,8.6-41.141.229-1.237-.055-1.322-1.022-1.359a259.67,259.67,0,0,1-33.375-3.412c-3.845-.65-7.676-1.387-11.514-2.078-.652-.117-1.128-.277-1.1.994a98.028,98.028,0,0,1-.483,11.273c-.987,10.734-1.929,21.471-2.573,32.231a4.986,4.986,0,0,0,.174,2.4c1.282-1.661,2.441-3.143,3.583-4.644,3.1-4.077,6.1-8.27,9.909-11.541,5.09-4.373,7.124-4.294,11.368.84C1840.894,199.9,1846,206.361,1851.337,212.993Zm62-46.975c1.838,14.687,1.874,29.658,5.636,44.321.241-.691.344-.979.442-1.269,1.932-5.779,4-11.487,7.243-16.532,2.256-3.509,3.342-3.756,6.443-1.513,7.065,5.111,13.69,10.915,20.293,16.756.5.439.895,1.143,1.679,1.127.05-.345.094-.6.124-.866,1.669-14.671,1.9-29.43,3.026-44.133.115-1.494-.333-1.688-1.554-1.509-8.208,1.2-16.437,2.1-24.69,2.537C1925.8,165.266,1919.611,165.652,1913.339,166.018Z" transform="translate(-0.201 -6.062)" fill="#291012"/>
        <path id="Path_19" data-name="Path 19" d="M1757.91,352.821l-.359.1.185-.343C1757.795,352.661,1757.853,352.741,1757.91,352.821Z" transform="translate(-39.968 -169.733)" fill="#291012"/>
        <path id="Path_20" data-name="Path 20" d="M1808.6,212.03a22.021,22.021,0,0,1-5-1.967,1.262,1.262,0,0,1-.63-1.618,1.3,1.3,0,0,1,1.512-1.031c1.882.462,3.754.98,5.6,1.581.638.208.728.958.536,1.653A1.793,1.793,0,0,1,1808.6,212.03Z" transform="translate(-73.25 -63.124)" fill="#291012"/>
        <path id="Path_21" data-name="Path 21" d="M1856.473,228.429a17,17,0,0,1,4.057,2.046,1.519,1.519,0,0,1,.456,1.907c-.36.884-1.022,1.174-1.724.819-1.4-.708-2.755-1.528-4.109-2.344a1.173,1.173,0,0,1-.391-1.536A1.356,1.356,0,0,1,1856.473,228.429Z" transform="translate(-111.251 -78.551)" fill="#291012"/>
        <path id="Path_22" data-name="Path 22" d="M1907.189,253.2a5.106,5.106,0,0,1,2,.423,1.562,1.562,0,0,1,.848,1.893,1.33,1.33,0,0,1-1.465,1.121,13.917,13.917,0,0,1-3.8-1.057,1.2,1.2,0,0,1-.7-1.4,1.235,1.235,0,0,1,1.07-1.142A13.136,13.136,0,0,1,1907.189,253.2Z" transform="translate(-147.52 -96.635)" fill="#291012"/>
        <path id="Path_23" data-name="Path 23" d="M2191.2,320.656c-.413-.038-1.217-.067-2.005-.2a1.265,1.265,0,0,1-1.109-1.453,1.364,1.364,0,0,1,1.146-1.5,18.478,18.478,0,0,1,5.959.382c.544.1.762.74.661,1.407a1.716,1.716,0,0,1-1.375,1.576A7.571,7.571,0,0,1,2191.2,320.656Z" transform="translate(-356.065 -143.897)" fill="#291012"/>
        <path id="Path_24" data-name="Path 24" d="M2249.615,328.811a1.45,1.45,0,0,1-1.575-1.534c0-1.4,1.066-1.512,2.028-1.593,1.143-.1,2.283-.26,3.425-.361,1.052-.092,2.094.093,2.165,1.548s-.922,1.857-1.988,1.9C2252.466,328.817,2251.26,328.8,2249.615,328.811Z" transform="translate(-400.088 -149.704)" fill="#291012"/>
        <path id="Path_25" data-name="Path 25" d="M2130.316,311.244c-.68-.063-1.358-.148-2.039-.183a1.144,1.144,0,0,1-1.167-1.147,1.286,1.286,0,0,1,1.1-1.5c1.87-.133,3.746-.155,5.615-.12.577.011.844.624.782,1.283a1.884,1.884,0,0,1-1.584,1.821,14.793,14.793,0,0,1-2.719-.041Z" transform="translate(-311.295 -137.202)" fill="#291012"/>
        <path id="Path_26" data-name="Path 26" d="M2619.771,312.49c-.191.009-.478,0-.762.039-.771.1-1.23-.35-1.343-1.148a1.35,1.35,0,0,1,.907-1.522c2.124-.535,4.262-1.01,6.41-1.355.809-.13,1.433.5,1.476,1.518a1.608,1.608,0,0,1-1.165,1.741A12.216,12.216,0,0,1,2619.771,312.49Z" transform="translate(-671.458 -137.359)" fill="#291012"/>
        <path id="Path_27" data-name="Path 27" d="M2568.293,309.759c1.4.2,2.094.841,2.066,2.064s-.752,1.483-1.775,1.568a36.522,36.522,0,0,0-4.535.928,1.156,1.156,0,0,1-1.466-.956,1.338,1.338,0,0,1,.661-1.644C2565.013,310.965,2566.815,310.324,2568.293,309.759Z" transform="translate(-630.982 -138.292)" fill="#291012"/>
        <path id="Path_28" data-name="Path 28" d="M2505.051,314.489c-1,0-1.475-.283-1.6-1.058a1.393,1.393,0,0,1,.694-1.649,10.2,10.2,0,0,1,5.746-.861,1.266,1.266,0,0,1,1.143,1.423,1.381,1.381,0,0,1-1.216,1.44C2508.112,314.043,2506.4,314.29,2505.051,314.489Z" transform="translate(-587.59 -139.043)" fill="#291012"/>
      </g>
      <g id="Group_68" data-name="Group 68" transform="translate(608.859 702.403) rotate(-160)">
        <path id="Path_29" data-name="Path 29" d="M208.478,52.523c-7.615-.413-14.948-.815-22.281-1.205-7.86-.418-15.721-.7-23.574-.448-1.039.033-1.291-.5-1.469-1.436-1.04-5.434-2.006-10.888-3.16-16.294-2.005-9.394-4.112-18.762-6.225-28.128a15.078,15.078,0,0,0-1.284-3.478c-.954-1.872-2.681-2.068-3.818-.391-4.966,7.325-10.924,13.6-16.265,20.53-3.258,4.226-3.629,4.156-7.57.626a55.712,55.712,0,0,1-6.819-7.752c-2.922-3.812-5.859-7.609-8.774-11.427-.68-.89-1.484-1.405-2.442-.957-1.018.476-.994,1.58-.935,2.691.821,15.332,2.216,30.618,3.865,45.883.208,1.92.1,3.82.141,5.73.017.71-.226.851-.757.969-11.828,2.633-23.278,6.782-34.8,10.62-1.082.36-1.464-.242-1.9-1.069-2.819-5.3-5.124-10.892-7.44-16.485-3.859-9.32-7.275-18.842-10.541-28.436a25.154,25.154,0,0,0-1.227-3.081c-1.1-2.216-2.773-2.42-4.1-.45q-3.919,5.795-7.727,11.69a54.61,54.61,0,0,1-9.246,10.609,1.388,1.388,0,0,1-1.99.11c-5.257-3.394-10.905-5.959-15.78-10.167-.8-.691-1.687-1.011-2.531-.2-.872.836-.518,1.906-.206,2.92C12.769,43.756,15.972,54,19.08,64.279c1.914,6.33,3.753,12.689,5.373,19.123.324,1.286.2,1.9-1.052,2.367-6.485,2.434-13,4.812-19.164,8.179a17.117,17.117,0,0,0-3.4,2.206,2.2,2.2,0,0,0,.067,3.5c.293.255.455.189.728-.02C6.737,95.709,12.666,93.9,18.387,91.6c16.682-6.717,33.625-12.575,50.547-18.483,13.108-4.576,26.187-9.353,39.719-12.232a289.6,289.6,0,0,1,46.226-6.133c15.948-.778,31.885.291,47.83,1.177,9.458.525,18.917.96,28.374,1.519,8.079.477,16.141,1.375,24.17,2.64,12.59,1.983,25.093,4.561,37.284,9.031.78.286.914.047,1.068-.8.346-1.912-.025-2.835-1.88-3.454A219.713,219.713,0,0,0,260.467,57.2c-1.478-.263-1.839-.8-1.954-2.434-1.031-14.714-1.237-29.474-2.859-44.154a36.422,36.422,0,0,0-.518-3.731c-.6-2.765-2.254-3.454-4.225-1.77q-7.71,6.59-15.381,13.239c-2.354,2.046-4.831,3.886-7.25,5.821-1.009.807-1.515.543-2.161-.524A71.172,71.172,0,0,1,219.8,9.228c-.748-2.233-1.6-4.427-2.438-6.619-.439-1.142-1.058-2.12-2.324-1.983s-1.367,1.363-1.622,2.424c-3.555,14.786-4.635,30.042-5.467,45.341A8.243,8.243,0,0,0,208.478,52.523ZM14.852,37.422c3.957,2.383,7.937,4.717,11.861,7.171,2.1,1.314,3.842,1.066,5.7-.558A62.494,62.494,0,0,0,43.807,30.4c1.625-2.543,3.322-5.024,5.114-7.726a396.7,396.7,0,0,0,18.6,46.972c-2.083.743-4.092,1.444-6.09,2.176C50.49,75.831,39.441,79.474,28.575,83.739c-.873.343-1.181.247-1.415-.979a208.247,208.247,0,0,0-6.207-23.8c-2.23-7.048-4.344-14.139-6.276-21.3l-.186-.343ZM148.313,5.548c.286,1.108.552,2.033.763,2.973,3.075,13.662,6.043,27.349,8.6,41.141.229,1.237-.055,1.322-1.022,1.359a259.67,259.67,0,0,0-33.375,3.412c-3.845.65-7.676,1.387-11.514,2.078-.652.117-1.128.277-1.1-.994a98.029,98.029,0,0,0-.483-11.273c-.987-10.734-1.929-21.471-2.573-32.231a4.986,4.986,0,0,1,.174-2.4c1.282,1.661,2.441,3.143,3.583,4.644,3.1,4.077,6.1,8.27,9.909,11.541,5.09,4.373,7.124,4.294,11.368-.84C137.87,18.642,142.971,12.18,148.313,5.548Zm62,46.975c1.838-14.687,1.874-29.658,5.636-44.321.241.691.344.979.442,1.269,1.932,5.779,4,11.487,7.243,16.532,2.256,3.509,3.342,3.756,6.443,1.513,7.065-5.111,13.69-10.915,20.293-16.756.5-.439.895-1.143,1.679-1.127.05.345.094.6.124.866,1.669,14.671,1.9,29.43,3.026,44.133.115,1.494-.333,1.688-1.554,1.509-8.208-1.2-16.437-2.1-24.69-2.537C222.771,53.275,216.586,52.89,210.314,52.524Z" transform="translate(0 0)" fill="#291012"/>
        <path id="Path_30" data-name="Path 30" d="M.359.1,0,0,.185.343C.244.264.3.184.359.1Z" transform="translate(14.76 29.287)" fill="#291012"/>
        <path id="Path_31" data-name="Path 31" d="M5.718,0a22.02,22.02,0,0,0-5,1.967,1.262,1.262,0,0,0-.63,1.618A1.3,1.3,0,0,0,1.6,4.616c1.882-.462,3.754-.98,5.6-1.581.638-.208.728-.958.536-1.653A1.793,1.793,0,0,0,5.718,0Z" transform="translate(26.808 63.574)" fill="#291012"/>
        <path id="Path_32" data-name="Path 32" d="M1.834,4.92A17,17,0,0,0,5.891,2.874,1.519,1.519,0,0,0,6.346.967C5.987.083,5.324-.207,4.623.147,3.224.856,1.867,1.675.514,2.491A1.173,1.173,0,0,0,.123,4.027,1.356,1.356,0,0,0,1.834,4.92Z" transform="translate(40.565 57.681)" fill="#291012"/>
        <path id="Path_33" data-name="Path 33" d="M3.151,3.446a5.106,5.106,0,0,0,2-.423A1.562,1.562,0,0,0,5.995,1.13,1.33,1.33,0,0,0,4.53.009a13.917,13.917,0,0,0-3.8,1.057,1.2,1.2,0,0,0-.7,1.4,1.235,1.235,0,0,0,1.07,1.142A13.136,13.136,0,0,0,3.151,3.446Z" transform="translate(53.695 52.47)" fill="#291012"/>
        <path id="Path_34" data-name="Path 34" d="M3.115.317C2.7.355,1.9.384,1.11.517A1.265,1.265,0,0,0,0,1.97a1.364,1.364,0,0,0,1.146,1.5,18.478,18.478,0,0,0,5.959-.382c.544-.1.762-.74.661-1.407A1.716,1.716,0,0,0,6.393.1,7.571,7.571,0,0,0,3.115.317Z" transform="translate(129.192 35.403)" fill="#291012"/>
        <path id="Path_35" data-name="Path 35" d="M1.575,0A1.45,1.45,0,0,0,0,1.534c0,1.4,1.066,1.512,2.028,1.593,1.143.1,2.283.26,3.425.361C6.5,3.58,7.546,3.4,7.618,1.94S6.7.084,5.63.041C4.425-.006,3.22.013,1.575,0Z" transform="translate(145.129 33.373)" fill="#291012"/>
        <path id="Path_36" data-name="Path 36" d="M3.213.207C2.533.27,1.855.356,1.173.39A1.144,1.144,0,0,0,.007,1.538a1.286,1.286,0,0,0,1.1,1.5c1.87.133,3.746.155,5.615.12.577-.011.844-.624.782-1.283A1.884,1.884,0,0,0,5.925.058,14.793,14.793,0,0,0,3.207.1Z" transform="translate(112.985 38.229)" fill="#291012"/>
        <path id="Path_37" data-name="Path 37" d="M2.12.091c-.191-.009-.478,0-.762-.039C.588-.047.129.4.015,1.2A1.35,1.35,0,0,0,.923,2.722c2.124.535,4.262,1.01,6.41,1.355.809.13,1.433-.5,1.476-1.518A1.608,1.608,0,0,0,7.644.818,12.216,12.216,0,0,0,2.12.091Z" transform="translate(243.369 37.257)" fill="#291012"/>
        <path id="Path_38" data-name="Path 38" d="M5.772,4.6c1.4-.2,2.094-.841,2.066-2.064S7.086,1.05,6.063.965A36.522,36.522,0,0,1,1.528.038,1.156,1.156,0,0,0,.062.993,1.338,1.338,0,0,0,.723,2.637C2.491,3.391,4.294,4.032,5.772,4.6Z" transform="translate(228.716 36.415)" fill="#291012"/>
        <path id="Path_39" data-name="Path 39" d="M1.63,0c-1,0-1.475.283-1.6,1.058A1.393,1.393,0,0,0,.726,2.707a10.2,10.2,0,0,0,5.746.861A1.265,1.265,0,0,0,7.615,2.145,1.381,1.381,0,0,0,6.4.705C4.691.447,2.982.2,1.63,0Z" transform="translate(213.008 37.033)" fill="#291012"/>
      </g>
    </g>
  </g>
</svg>
